<?xml version="1.0" standalone="no"?>
    <svg width="1001" height="1001" version="1.1" xmlns="http://www.w3.org/2000/svg">
    <path d="M1001 501 L147 854 L579 7 L610 988 L563 4 L147 854 L1000 485 L136 843 L1000 516 L125 831 L998 548 L115 819 L994 579 L105 807 L988 610 L96 794 L876 170 L407 992 L219 87 L794 905 L469 1 L741 939 L532 1 L655 976 L594 9 L158 865 L532 1 L782 914 L453 3 L807 896 L485 1 L713 953 L548 3 L147 854 L532 1 L755 931 L453 3 L246 931 L422 7 L831 876 L7 579 L843 865 L13 610 L854 854 L9 594 L807 896 L500 1 L699 959 L13 391 L685 965 L516 1 L147 854 L831 125 L125 831 L854 147 L516 1000 L136 158 L500 1001 L147 147 L485 1000 L158 136 L819 886 L516 1 L768 923 L500 1 L207 905 L453 3 L194 896 L988 391 L182 886 L994 422 L170 876 L563 4 L727 946 L469 1 L219 914 L976 346 L346 976 L959 302 L407 992 L953 288 L346 976 L946 274 L331 971 L939 260 L376 985 L905 207 L516 1000 L125 170 L532 1000 L655 25 L125 831 L831 125 L115 819 L819 115 L136 843 L843 136 L391 988 L914 219 L376 985 L260 62 L741 939 L3 453 L727 946 L246 70 L768 923 L453 3 L182 886 L782 87 L170 876 L548 3 L794 905 L438 4 L260 939 L407 9 L246 931 L727 55 L233 923 L407 9 L819 886 L485 1 L755 931 L1 485 L768 923 L207 96 L422 994 L807 105 L136 843 L640 20 L548 998 L105 194 L532 1000 L865 158 L500 1001 L854 147 L485 1000 L843 136 L136 843 L532 1 L640 981 L36 316 L939 260 L42 302 L625 985 L376 16 L610 988 L55 274 L768 923 L548 3 L655 976 L346 25 L219 914 L755 70 L115 819 L992 594 L105 807 L997 563 L96 794 L981 640 L87 782 L985 625 L136 843 L843 136 L376 985 L971 331 L361 981 L965 316 L62 260 L594 992 L594 9 L136 843 L516 1 L794 905 L194 105 L438 997 L182 115 L831 876 L20 640 L876 831 L30 670 L831 876 L469 1 L260 939 L316 36 L713 953 L233 78 L782 914 L438 4 L170 876 L997 438 L288 953 L302 42 L782 914 L274 55 L346 976 L923 233 L469 1000 L170 125 L831 876 L16 625 L794 905 L485 1 L182 886 L376 16 L579 994 L78 233 L965 316 L438 997 L923 233 L36 316 L914 219 L532 1000 L896 194 L16 376 L886 182 L563 997 L625 16 L158 865 L1000 469 L170 125 L453 998 L854 147 L407 992 L923 233 L42 302 L854 854 L7 579 L807 896 L3 548 L819 886 L500 1 L136 843 L843 136 L4 438 L831 125 L125 831 L640 20 L782 914 L20 640 L886 819 L36 685 L914 782 L42 699 L843 865 L391 13 L233 923 L713 48 L219 914 L1000 532 L194 896 L794 96 L115 819 L819 115 L7 422 L727 946 L579 7 L158 865 L391 13 L640 981 L594 9 L699 959 L105 194 L976 346 L3 548 L854 854 L55 274 L579 994 L865 158 L563 997 L96 207 L981 361 L422 994 L976 346 L407 992 L819 115 L115 819 L713 48 L260 939 L741 62 L670 971 L20 361 L886 182 L331 971 L361 20 L610 988 L422 7 L794 905 L13 610 L946 274 L391 988 L831 125 L125 831 L625 16 L782 914 L219 87 L755 931 L274 55 L331 971 L971 331 L233 923 L965 316 L96 207 L516 1000 L876 170 L20 361 L655 976 L30 331 L594 992 L70 246 L741 939 L485 1 L136 843 L843 136 L563 997 L48 288 L914 219 L316 965 L288 48 L640 981 L741 62 L246 931 L331 30 L376 985 L998 453 L158 865 L563 4 L699 959 L755 70 L194 896 L361 20 L579 994 L610 13 L170 876 L594 9 L807 896 L438 4 L147 854 L854 147 L20 361 L976 655 L78 768 L981 640 L288 48 L794 905 L391 13 L625 985 L48 288 L953 288 L62 260 L914 219 L302 959 L992 407 L288 953 L988 391 L1 516 L782 87 L1 485 L997 438 L147 147 L994 422 L376 985 L896 194 L469 1000 L939 260 L361 981 L331 30 L727 946 L1 500 L782 914 L62 260 L896 194 L361 981 L260 62 L819 886 L453 3 L158 865 L548 3 L807 896 L42 699 L923 768 L36 685 L819 886 L25 655 L843 865 L36 316 L610 988 L9 407 L994 579 L219 87 L713 953 L1 516 L741 62 L1 485 L994 422 L158 136 L640 981 L16 376 L985 625 L78 768 L992 594 L7 422 L807 105 L125 831 L831 125 L1 469 L610 988 L699 42 L260 939 L670 30 L246 931 L981 361 L469 1000 L865 158 L9 407 L807 105 L115 819 L699 42 L741 939 L207 96 L407 992 L997 438 L316 965 L361 20 L288 953 L939 260 L274 946 L422 7 L260 939 L655 25 L794 905 L78 233 L985 376 L87 219 L953 288 L422 994 L854 147 L147 854 L391 13 L807 896 L579 7 L125 831 L831 125 L376 985 L992 407 L207 905 L992 594 L13 391 L579 994 L7 422 L640 981 L563 4 L125 831 L831 125 L20 361 L807 105 L655 976 L755 70 L685 965 L1 532 L699 959 L87 219 L939 260 L16 625 L843 865 L194 105 L1000 532 L182 886 L971 670 L87 782 L807 896 L532 1 L219 914 L407 9 L831 876 L500 1 L685 965 L16 376 L594 992 L876 170 L361 981 L959 302 L485 1000 L931 246 L30 331 L807 105 L105 807 L782 87 L20 361 L532 1000 L886 182 L62 260 L768 923 L48 713 L794 905 L376 16 L170 876 L992 407 L1 485 L727 55 L655 976 L3 548 L699 42 L219 914 L391 13 L685 965 L302 42 L655 976 L125 170 L985 376 L453 998 L182 115 L1001 501 L3 453 L625 985 L548 3 L699 959 L136 158 L976 346 L391 988 L997 438 L158 865 L500 1 L194 896 L981 640 L158 865 L361 20 L147 854 L854 147 L3 453 L1000 485 L233 78 L997 563 L7 422 L713 953 L768 78 L105 807 L755 70 L1 532 L854 854 L115 182 L988 391 L70 246 L563 997 L4 438 L819 115 L115 819 L959 699 L62 741 L965 685 L302 42 L610 988 L886 182 L438 997 L998 453 L422 994 L843 136 L136 843 L876 831 L16 625 L741 939 L96 207 L939 260 L13 610 L625 16 L768 923 L438 4 L453 998 L981 361 L125 170 L469 1000 L48 288 L939 741 L55 274 L971 331 L4 563 L843 865 L147 854 L854 147 L25 346 L670 971 L4 438 L988 610 L246 70 L998 548 L274 946 L997 438 L105 194 L939 260 L548 998 L30 331 L500 1001 L971 331 L331 971 L998 453 L302 959 L288 48 L768 923 L194 105 L992 407 L274 946 L316 36 L246 931 L959 302 L78 233 L727 946 L422 7 L170 876 L1000 532 L260 62 L992 594 L147 854 L854 147 L9 407 L741 62 L105 807 L794 905 L42 699 L865 843 L96 794 L998 548 L7 422 L755 70 L1 500 L625 985 L727 55 L9 407 L516 1000 L87 219 L992 407 L158 136 L965 316 L7 579 L971 670 L233 923 L981 361 L182 115 L563 997 L36 316 L807 105 L87 782 L886 819 L16 625 L640 20 L260 939 L500 1 L782 914 L469 1 L485 1000 L55 274 L905 207 L548 998 L3 453 L831 125 L125 831 L782 914 L48 288 L946 727 L1 532 L985 376 L1 516 L699 42 L1 485 L594 992 L923 233 L391 988 L1000 469 L361 981 L865 158 L346 976 L376 16 L158 865 L831 876 L532 1 L125 831 L831 125 L25 346 L782 87 L727 946 L25 655 L896 807 L136 843 L843 136 L16 376 L914 219 L579 994 L946 274 L500 1001 L70 246 L971 331 L331 971 L923 233 L115 182 L914 219 L125 170 L713 953 L55 727 L755 931 L1 469 L699 42 L713 953 L9 407 L981 640 L13 391 L532 1000 L981 361 L207 905 L469 1 L819 886 L170 876 L976 655 L125 831 L831 125 L42 302 L640 981 L4 563 L713 48 L755 931 L438 4 L207 905 L260 62 L182 886 L807 896 L42 302 L953 713 L207 905 L407 9 L594 992 L1 516 L670 971 L610 13 L807 896 L516 1 L219 914 L1000 516 L274 55 L994 579 L78 768 L998 548 L346 976 L976 346 L194 105 L755 931 L9 594 L953 288 L78 233 L946 274 L87 219 L548 998 L985 376 L516 1000 L865 158 L331 971 L971 331 L316 965 L905 207 L115 182 L1000 485 L438 997 L981 361 L407 992 L469 1 L136 843 L843 136 L469 1000 L25 346 L819 115 L115 819 L843 865 L485 1 L260 939 L391 13 L194 896 L346 25 L147 854 L854 147 L13 391 L896 194 L70 755 L865 843 L25 655 L923 233 L87 219 L741 939 L346 25 L579 994 L896 194 L316 965 L997 563 L4 438 L699 959 L30 670 L807 896 L469 1 L548 998 L876 170 L7 422 L699 42 L9 407 L843 865 L105 807 L713 48 L1 532 L981 361 L376 985 L976 346 L346 976 L1000 469 L438 997 L48 288 L807 105 L55 274 L959 302 L233 923 L768 78 L3 548 L670 971 L105 194 L931 246 L625 985 L9 594 L625 16 L4 563 L655 976 L579 7 L794 905 L246 70 L182 886 L219 87 L997 563 L288 953 L438 4 L831 876 L125 831 L831 125 L670 971 L516 1 L36 685 L1000 532 L1 500 L994 422 L422 994 L931 246 L30 670 L843 865 L48 288 L965 316 L170 125 L219 914 L976 655 L274 55 L194 896 L782 914 L170 876 L831 876 L48 713 L939 741 L246 931 L302 42 L1001 501 L453 998 L20 361 L981 640 L30 331 L485 1000 L985 376 L170 125 L1000 516 L288 48 L997 563 L182 886 L207 96 L854 854 L158 865 L994 422 L422 994 L219 87 L1000 516 L4 438 L768 78 L25 346 L959 699 L55 727 L685 965 L115 182 L896 194 L96 207 L998 453 L1 469 L685 36 L274 946 L727 55 L7 579 L959 302 L594 992 L953 288 L316 965 L946 274 L20 640 L923 233 L288 953 L965 685 L4 563 L610 13 L3 548 L532 1000 L1 469 L640 981 L13 391 L699 42 L105 807 L854 854 L1 500 L794 96 L115 819 L819 115 L42 302 L782 87 L115 819 L819 115 L670 971 L62 741 L741 939 L136 843 L843 136 L407 992 L1001 501 L170 876 L207 96 L782 914 L55 727 L931 755 L55 274 L939 260 L136 158 L997 438 L438 997 L959 302 L170 125 L182 886 L819 886 L136 843 L843 136 L20 361 L713 953 L670 30 L1 469 L896 807 L16 625 L988 610 L87 782 L794 96 L55 274 L532 1000 L988 391 L1 500 L713 48 L727 946 L768 78 L7 579 L579 994 L1 532 L843 865 L516 1 L30 670 L998 548 L136 158 L854 854 L62 260 L914 782 L125 831 L831 125 L36 316 L946 274 L485 1000 L1000 516 L469 1000 L453 3 L136 843 L843 136 L361 981 L931 246 L136 158 L219 914 L768 923 L207 905 L807 896 L194 896 L985 625 L13 610 L563 997 L992 407 L158 865 L905 794 L136 843 L843 136 L3 453 L994 579 L361 981 L115 182 L998 453 L246 70 L997 438 L274 55 L219 914 L794 905 L640 20 L7 579 L685 36 L13 391 L438 997 L946 274 L96 207 L886 182 L376 985 L1001 501 L105 194 L219 914 L971 331 L331 971 L331 30 L946 727 L42 699 L532 1 L233 923 L485 1 L831 876 L9 594 L741 62 L25 346 L988 610 L453 998 L1000 485 L376 985 L125 170 L182 886 L896 807 L96 794 L992 407 L170 125 L953 288 L147 854 L854 147 L346 976 L976 346 L532 1000 L965 316 L70 246 L981 361 L207 96 L992 594 L453 998 L16 376 L971 670 L391 988 L905 207 L70 246 L807 896 L158 865 L971 331 L331 971 L914 782 L30 670 L500 1 L55 727 L819 886 L194 896 L233 78 L985 625 L125 831 L831 125 L70 246 L959 302 L4 563 L594 9 L3 548 L953 713 L346 25 L391 988 L985 376 L685 965 L3 453 L854 854 L147 854 L854 147 L78 233 L516 1000 L1 485 L1000 532 L7 422 L794 96 L9 407 L407 992 L994 422 L361 981 L981 361 L685 965 L96 794 L819 115 L115 819 L655 25 L20 640 L610 988 L1 516 L843 865 L194 896 L965 685 L469 1000 L985 625 L316 36 L998 548 L548 998 L16 625 L965 316 L331 971 L959 302 L207 905 L246 70 L685 965 L147 854 L854 147 L331 971 L42 302 L768 78 L96 794 L755 70 L30 331 L865 843 L422 7 L125 831 L831 125 L78 233 L685 965 L42 699 L831 876 L3 548 L579 7 L713 953 L207 905 L794 905 L331 30 L147 854 L854 147 L579 994 L997 563 L453 998 L1000 469 L219 87 L976 346 L346 976 L55 274 L923 233 L105 194 L182 886 L158 136 L1000 485 L125 831 L831 125 L7 422 L316 965 L886 182 L125 170 L699 42 L78 233 L182 886 L768 923 L727 55 L25 346 L971 670 L469 1000 L1001 501 L4 438 L876 831 L42 699 L965 685 L516 1000 L965 316 L158 865 L865 158 L16 376 L794 96 L1 532 L976 346 L346 976 L994 579 L594 992 L905 207 L485 1000 L959 699 L532 1000 L20 640 L819 886 L391 13 L1 532 L579 7 L25 346 L931 246 L16 625 L655 25 L13 610 L610 988 L931 246 L36 316 L260 939 L755 931 L233 923 L288 48 L1000 469 L699 959 L988 391 L563 997 L62 741 L469 1 L1 485 L854 854 L391 988 L976 655 L9 594 L655 25 L246 931 L997 563 L563 4 L985 625 L30 331 L625 985 L7 579 L625 16 L87 219 L685 36 L260 939 L946 274 L147 854 L854 147 L914 782 L20 361 L794 96 L136 158 L685 36 L147 147 L1000 532 L594 9 L1000 485 L713 953 L994 422 L391 988 L985 625 L288 953 L959 302 L158 865 L865 158 L438 997 L997 438 L655 976 L105 807 L807 105 L96 794 L768 923 L233 923 L194 105 L407 992 L931 755 L500 1001 L939 741 L407 992 L965 685 L13 610 L346 25 L1 532 L331 30 L1 516 L579 7 L998 548 L233 923 L422 7 L3 548 L407 9 L136 843 L843 136 L1 485 L331 30 L992 594 L391 988 L981 361 L361 981 L976 655 L302 42 L391 988 L3 548 L376 16 L260 939 L16 376 L988 610 L655 25 L147 147 L170 876 L843 865 L422 994 L923 768 L62 260 L807 105 L78 768 L453 3 L25 346 L532 1 L1001 501 L727 946 L246 931 L640 20 L115 819 L819 115 L3 453 L316 965 L965 316 L625 985 L959 699 L207 905 L939 260 L274 946 L42 302 L755 70 L115 182 L727 55 L70 246 L994 422 L655 976 L3 453 L998 548 L548 998 L953 713 L500 1001 L25 655 L914 219 L147 147 L625 16 L1000 469 L670 971 L998 453 L194 896 L182 115 L685 36 L219 87 L62 741 L610 988 L965 316 L316 965 L865 158 L158 865 L125 170 L727 55 L579 994 L42 699 L361 20 L30 670 L485 1000 L981 640 L548 3 L997 438 L438 997 L985 376 L422 994 L1 485 L625 985 L976 655 L105 807 L819 115 L115 819 L625 16 L158 136 L610 13 L7 579 L946 274 L302 959 L905 207 L78 233 L931 246 L42 302 L182 886 L1000 516 L741 939 L246 931 L13 391 L819 115 L115 819 L768 78 L20 361 L469 1 L55 727 L182 115 L610 13 L1000 516 L391 988 L876 170 L376 985 L854 854 L48 713 L905 794 L886 182 L105 194 L768 78 L87 782 L819 886 L233 923 L782 914 L988 391 L655 976 L985 376 L194 105 L610 13 L219 87 L42 699 L158 136 L30 670 L946 727 L563 997 L9 594 L971 331 L331 971 L994 579 L685 965 L260 939 L713 953 L992 594 L699 959 L16 376 L819 115 L115 819 L594 992 L886 182 L288 48 L1 485 L274 55 L685 36 L20 640 L976 655 L500 1001 L988 391 L170 876 L981 361 L361 981 L87 219 L563 4 L992 407 L625 16 L62 741 L194 105 L794 96 L62 260 L976 346 L346 976 L1 500 L288 953 L713 48 L70 246 L640 20 L136 158 L727 55 L965 685 L865 158 L158 865 L939 260 L147 854 L854 147 L896 807 L516 1000 L25 655 L953 288 L30 331 L453 3 L42 302 L438 4 L953 288 L288 953 L48 288 L931 246 L469 1 L48 713 L594 9 L219 87 L579 7 L988 610 L469 1000 L988 391 L376 985 L985 376 L640 981 L953 713 L13 391 L219 914 L965 316 L316 965 L4 563 L807 896 L147 854 L854 147 L4 438 L713 48 L115 182 L42 699 L453 998 L998 453 L727 946 L997 438 L438 997 L48 713 L170 125 L699 42 L25 655 L939 260 L640 981 L914 219 L625 985 L981 640 L9 594 L965 316 L316 965 L260 62 L78 768 L233 78 L579 7 L246 70 L1 485 L469 1000 L36 685 L939 741 L233 923 L30 331 L741 62 L62 260 L438 4 L4 563 L755 70 L87 782 L819 115 L115 819 L640 981 L971 670 L876 170 L923 768 L516 1000 L1000 532 L500 1001 L1000 469 L741 939 L376 985 L985 376 L640 20 L78 233 L422 7 L976 346 L346 976 L741 939 L207 905 L831 876 L182 886 L959 302 L3 548 L361 20 L807 105 L4 438 L331 30 L685 36 L346 25 L1 500 L1000 516 L13 391 L905 207 L939 741 L136 843 L843 136 L316 36 L1 500 L302 42 L923 233 L485 1 L70 755 L994 422 L699 959 L274 946 L713 48 L136 158 L923 233 L516 1 L1000 516 L794 905 L96 794 L782 87 L55 274 L453 998 L998 453 L182 886 L9 407 L985 625 L625 985 L992 594 L610 988 L170 876 L976 346 L346 976 L768 923 L1000 485 L755 931 L246 931 L36 316 L794 96 L316 36 L699 42 L207 96 L1 485 L194 105 L1000 485 L685 965 L971 331 L331 971 L9 407 L854 854 L87 782 L563 4 L246 70 L985 376 L376 985 L992 594 L16 376 L905 207 L532 1 L158 136 L25 655 L115 182 L20 640 L361 20 L685 36 L376 16 L48 713 L782 914 L219 914 L1 516 L807 105 L105 807 L755 931 L1000 532 L727 55 L994 579 L194 896 L971 331 L331 971 L914 219 L946 727 L655 976 L288 953 L670 971 L931 755 L896 194 L625 985 L158 865 L865 158 L923 768 L1 500 L233 923 L9 407 L485 1 L16 376 L331 30 L30 331 L946 274 L453 3 L55 274 L981 361 L361 981 L727 946 L274 946 L670 30 L136 843 L843 136 L886 819 L147 854 L854 147 L302 42 L30 331 L87 782 L905 794 L865 158 L158 865 L7 422 L219 914 L819 886 L1000 532 L807 896 L438 997 L997 438 L625 16 L170 125 L807 105 L105 807 L42 302 L331 30 L782 87 L96 207 L931 246 L953 713 L407 992 L843 865 L158 865 L865 158 L994 579 L20 640 L105 194 L741 62 L96 794 L36 316 L876 831 L532 1000 L998 548 L9 594 L939 260 L7 579 L453 3 L115 182 L422 7 L685 36 L391 13 L670 30 L981 361 L361 981 L13 391 L807 105 L105 807 L794 96 L78 768 L25 346 L346 25 L768 78 L207 96 L610 13 L115 819 L819 115 L391 988 L713 953 L992 407 L670 971 L939 741 L485 1000 L886 182 L302 959 L965 316 L316 965 L25 655 L147 147 L713 48 L36 685 L794 905 L1001 501 L755 70 L20 361 L485 1000 L1000 532 L125 170 L48 713 L548 3 L246 70 L532 1 L274 55 L87 782 L7 422 L78 768 L438 997 L997 438 L182 886 L876 170 L170 876 L959 302 L125 831 L831 125 L9 407 L246 70 L70 755 L233 78 L699 42 L260 62 L42 302 L655 25 L988 391 L407 992 L699 959 L923 768 L685 965 L288 953 L953 288 L959 699 L939 260 L260 939 L727 946 L988 610 L831 876 L998 548 L876 170 L170 876 L876 831 L13 610 L96 207 L7 579 L207 905 L548 998 L843 865 L532 1000 L886 819 L992 407 L422 994 L670 971 L965 685 L136 843 L843 136 L1 469 L997 438 L438 997 L62 741 L516 1 L914 219 L563 4 L16 625 L105 194 L548 3 L1000 469 L485 1000 L998 453 L453 998 L971 670 L407 992 L985 376 L376 985 L16 376 L699 42 L976 346 L346 976 L48 288 L331 30 L55 274 L755 70 L361 20 L1 516 L182 886 L594 992 L831 876 L563 997 L997 563 L865 843 L194 896 L965 316 L316 965 L55 727 L640 20 L147 147 L422 7 L655 25 L62 260 L331 30 L579 7 L905 207 L194 896 L886 182 L931 755 L42 699 L25 346 L346 25 L579 7 L115 819 L819 115 L30 331 L939 260 L260 939 L768 923 L246 931 L1 485 L96 207 L876 170 L170 876 L7 579 L78 233 L331 30 L115 182 L741 62 L1000 516 L886 182 L288 953 L953 288 L274 946 L1 469 L194 105 L782 87 L78 768 L532 1 L288 48 L959 699 L500 1001 L965 685 L965 316 L316 965 L640 981 L302 959 L62 741 L4 438 L42 699 L469 1 L939 260 L260 939 L207 96 L30 670 L125 170 L807 105 L105 807 L670 30 L453 3 L36 685 L219 87 L755 70 L997 438 L438 997 L994 422 L896 807 L713 953 L905 794 L516 1000 L946 727 L931 246 L147 854 L854 147 L48 288 L819 115 L115 819 L422 994 L685 965 L1000 469 L469 1000 L670 971 L976 655 L971 331 L331 971 L625 985 L1000 469 L469 1000 L182 886 L4 563 L233 923 L886 182 L610 13 L233 78 L42 302 L965 685 L959 302 L316 965 L965 316 L727 55 L361 20 L548 3 L87 782 L741 62 L959 302 L302 959 L1 469 L182 115 L625 16 L422 7 L170 125 L36 685 L25 346 L346 25 L994 579 L896 807 L1000 485 L516 1000 L755 931 L959 699 L741 939 L1000 485 L896 194 L594 9 L207 96 L70 755 L288 953 L946 274 L170 876 L876 170 L13 391 L794 96 L96 794 L9 407 L182 115 L807 105 L105 807 L422 7 L246 70 L55 274 L7 579 L931 246 L939 741 L768 923 L946 727 L1001 501 L782 914 L579 994 L346 976 L976 346 L981 640 L407 992 L992 407 L391 988 L988 391 L985 625 L625 985 L807 896 L246 931 L905 207 L87 219 L13 610 L147 854 L854 147 L610 13 L453 3 L30 670 L3 453 L96 207 L755 70 L13 610 L25 346 L346 25 L532 1 L376 16 L959 302 L302 959 L713 953 L959 699 L699 959 L1001 501 L896 194 L246 931 L3 548 L42 302 L170 125 L55 274 L158 136 L713 48 L194 105 L625 16 L819 115 L115 819 L274 946 L946 274 L965 685 L485 1000 L625 985 L438 997 L997 438 L905 207 L1000 469 L469 1000 L70 246 L438 4 L579 7 L274 55 L30 331 L727 55 L96 794 L794 96 L640 20 L233 923 L876 170 L170 876 L30 670 L1 500 L78 768 L274 946 L946 274 L182 115 L331 30 L699 42 L992 594 L914 782 L782 914 L923 768 L579 994 L939 741 L896 194 L346 976 L976 346 L971 670 L971 331 L331 971 L13 391 L782 87 L953 288 L288 953 L713 953 L376 985 L985 376 L361 981 L981 361 L985 625 L625 985 L998 453 L453 998 L670 971 L391 988 L988 391 L914 219 L288 953 L182 886 L886 182 L655 25 L125 170 L316 36 L610 13 L485 1 L361 20 L16 625 L182 886 L886 182 L1000 532 L905 794 L699 959 L959 699 L685 965 L391 988 L988 391 L997 563 L563 997 L794 905 L876 831 L741 939 L886 819 L831 125 L125 831 L233 923 L182 115 L25 346 L346 25 L3 548 L20 361 L361 20 L207 905 L923 233 L548 3 L453 3 L25 655 L182 886 L886 182 L768 78 L48 288 L115 819 L819 115 L25 655 L1 516 L70 755 L532 1 L685 36 L610 13 L260 62 L422 7 L288 48 L136 158 L55 274 L125 170 L25 655 L78 768 L579 7 L500 1 L391 13 L55 727 L30 331 L182 115 L288 48 L391 13 L485 1 L62 741 L136 158 L62 260 L125 170 L125 170 Z" stroke="black" stroke-width="0.5" fill="none" />
</svg>